<svg width="28" height="28" viewBox="0 0 28 28" fill="none" xmlns="http://www.w3.org/2000/svg">
<g id="ant-design:home-outlined">
<path id="Vector" d="M2.11913 13.8085L12.6848 3.24838L13.393 2.54018C13.5543 2.37988 13.7725 2.28992 14 2.28992C14.2274 2.28992 14.4457 2.37988 14.607 2.54018L25.8808 13.8085C26.0462 13.9732 26.1769 14.1694 26.2652 14.3854C26.3534 14.6015 26.3976 14.833 26.3949 15.0664C26.384 16.0289 25.5828 16.7972 24.6203 16.7972H23.4582V25.7031H4.54178V16.7972H3.35506C2.88748 16.7972 2.44725 16.614 2.11639 16.2831C1.95348 16.1208 1.8244 15.9277 1.73663 15.715C1.64886 15.5024 1.60414 15.2745 1.60506 15.0445C1.60506 14.5796 1.78827 14.1394 2.11913 13.8085ZM12.4687 23.7343H15.5312V18.1562H12.4687V23.7343ZM6.51053 14.8285V23.7343H10.7187V17.4999C10.7187 16.8956 11.2082 16.4062 11.8125 16.4062H16.1875C16.7918 16.4062 17.2812 16.8956 17.2812 17.4999V23.7343H21.4894V14.8285H24.1144L13.9973 4.71948L13.3656 5.35112L3.8828 14.8285H6.51053Z" fill="#999999"/>
</g>
</svg>
