<svg width="30" height="30" viewBox="0 0 30 30" fill="none" xmlns="http://www.w3.org/2000/svg">
<path id="Vector" d="M20.0875 23.6154V24.6923C20.0875 25.8348 19.5516 26.9305 18.5977 27.7383C17.6438 28.5462 16.35 29 15.0009 29C13.6519 29 12.3581 28.5462 11.4042 27.7383C10.4503 26.9305 9.91435 25.8348 9.91435 24.6923V23.6154M28.6457 21.4232C26.6047 19.3077 25.1638 18.2308 25.1638 12.3986C25.1638 7.05769 21.9434 5.1549 19.2928 4.23077C18.9407 4.10827 18.6093 3.82692 18.502 3.52067C18.037 2.18058 16.7336 1 15.0009 1C13.2683 1 11.9641 2.18125 11.5039 3.52202C11.3966 3.83163 11.0652 4.10827 10.7131 4.23077C8.05934 5.15625 4.84206 7.05231 4.84206 12.3986C4.83809 18.2308 3.39715 19.3077 1.35616 21.4232C0.51051 22.2995 1.25125 23.6154 2.73033 23.6154H27.2795C28.7507 23.6154 29.4866 22.2955 28.6457 21.4232Z" stroke="#999999" stroke-width="2" stroke-linecap="round" stroke-linejoin="round"/>
</svg>
