<svg width="30" height="30" viewBox="0 0 30 30" fill="none" xmlns="http://www.w3.org/2000/svg">
<g id="ep:arrow-up">
<path id="Vector" d="M14.3213 19.9126L4.36501 9.46318C4.1988 9.28883 4.10608 9.05719 4.10608 8.8163C4.10608 8.57542 4.1988 8.34378 4.36501 8.16943L4.37626 8.15818C4.45683 8.07336 4.55382 8.00583 4.66132 7.95968C4.76882 7.91353 4.88458 7.88973 5.00157 7.88973C5.11856 7.88973 5.23432 7.91353 5.34182 7.95968C5.44932 8.00583 5.54631 8.07336 5.62688 8.15818L15.0019 17.9982L24.3731 8.15818C24.4537 8.07336 24.5507 8.00583 24.6582 7.95968C24.7657 7.91353 24.8815 7.88973 24.9984 7.88973C25.1154 7.88973 25.2312 7.91353 25.3387 7.95968C25.4462 8.00583 25.5432 8.07336 25.6238 8.15818L25.635 8.16943C25.8012 8.34378 25.8939 8.57542 25.8939 8.8163C25.8939 9.05719 25.8012 9.28883 25.635 9.46318L15.6788 19.9126C15.5912 20.0045 15.4859 20.0776 15.3692 20.1276C15.2525 20.1776 15.1269 20.2034 15 20.2034C14.8731 20.2034 14.7475 20.1776 14.6308 20.1276C14.5141 20.0776 14.4088 20.0045 14.3213 19.9126Z" fill="#999999"/>
</g>
</svg>
