<svg width="36" height="41" viewBox="0 0 36 41" fill="none" xmlns="http://www.w3.org/2000/svg">
<g id="fa-solid:unlock">
<path id="Vector" d="M9.46429 20.5H22.1964V14.2577C22.1964 11.86 20.569 9.86802 18.5359 9.8438C16.4824 9.81958 14.8036 11.7874 14.8036 14.2032V15.1719C14.8036 15.9772 14.2542 16.625 13.5714 16.625H11.9286C11.2458 16.625 10.6964 15.9772 10.6964 15.1719V14.2032C10.6964 9.11724 14.2132 4.9819 18.5257 5.00006C22.8382 5.01822 26.3036 9.20806 26.3036 14.294V20.5H27.5357C28.8962 20.5 30 21.8018 30 23.4063V33.0938C30 34.6982 28.8962 36 27.5357 36H9.46429C8.10379 36 7 34.6982 7 33.0938V23.4063C7 21.8018 8.10379 20.5 9.46429 20.5Z" fill="black"/>
</g>
</svg>
