<svg width="25" height="25" viewBox="0 0 25 25" fill="none" xmlns="http://www.w3.org/2000/svg">
<g id="fluent:board-16-regular">
<path id="Vector" d="M3.125 7.03125C3.125 5.99525 3.53655 5.00168 4.26911 4.26911C5.00168 3.53655 5.99525 3.125 7.03125 3.125H17.9688C19.0048 3.125 19.9983 3.53655 20.7309 4.26911C21.4634 5.00168 21.875 5.99525 21.875 7.03125V17.9688C21.875 19.0048 21.4634 19.9983 20.7309 20.7309C19.9983 21.4634 19.0048 21.875 17.9688 21.875H7.03125C5.99525 21.875 5.00168 21.4634 4.26911 20.7309C3.53655 19.9983 3.125 19.0048 3.125 17.9688V7.03125ZM7.03125 4.6875C6.40965 4.6875 5.81351 4.93443 5.37397 5.37397C4.93443 5.81351 4.6875 6.40965 4.6875 7.03125V7.8125H11.7188V4.6875H7.03125ZM13.2812 4.6875V15.625H20.3125V7.03125C20.3125 6.40965 20.0656 5.81351 19.626 5.37397C19.1865 4.93443 18.5904 4.6875 17.9688 4.6875H13.2812ZM20.3125 17.1875H13.2812V20.3125H17.9688C18.5904 20.3125 19.1865 20.0656 19.626 19.626C20.0656 19.1865 20.3125 18.5904 20.3125 17.9688V17.1875ZM11.7188 20.3125V9.375H4.6875V17.9688C4.6875 18.5904 4.93443 19.1865 5.37397 19.626C5.81351 20.0656 6.40965 20.3125 7.03125 20.3125H11.7188Z" fill="#C584D6"/>
</g>
</svg>
