<svg width="35" height="35" viewBox="0 0 35 35" fill="none" xmlns="http://www.w3.org/2000/svg">
<g id="fluent:board-16-regular">
<path id="Vector" d="M4.375 9.84375C4.375 8.39335 4.95117 7.00235 5.97676 5.97676C7.00235 4.95117 8.39335 4.375 9.84375 4.375H25.1562C26.6067 4.375 27.9977 4.95117 29.0232 5.97676C30.0488 7.00235 30.625 8.39335 30.625 9.84375V25.1562C30.625 26.6067 30.0488 27.9977 29.0232 29.0232C27.9977 30.0488 26.6067 30.625 25.1562 30.625H9.84375C8.39335 30.625 7.00235 30.0488 5.97676 29.0232C4.95117 27.9977 4.375 26.6067 4.375 25.1562V9.84375ZM9.84375 6.5625C8.97351 6.5625 8.13891 6.9082 7.52356 7.52356C6.9082 8.13891 6.5625 8.97351 6.5625 9.84375V10.9375H16.4062V6.5625H9.84375ZM18.5938 6.5625V21.875H28.4375V9.84375C28.4375 8.97351 28.0918 8.13891 27.4764 7.52356C26.8611 6.9082 26.0265 6.5625 25.1562 6.5625H18.5938ZM28.4375 24.0625H18.5938V28.4375H25.1562C26.0265 28.4375 26.8611 28.0918 27.4764 27.4764C28.0918 26.8611 28.4375 26.0265 28.4375 25.1562V24.0625ZM16.4062 28.4375V13.125H6.5625V25.1562C6.5625 26.0265 6.9082 26.8611 7.52356 27.4764C8.13891 28.0918 8.97351 28.4375 9.84375 28.4375H16.4062Z" fill="#E67C41"/>
</g>
</svg>
