<svg width="40" height="40" viewBox="0 0 40 40" fill="none" xmlns="http://www.w3.org/2000/svg">
<g id="la:broom">
<path id="Vector" d="M35.3513 2.8512L22.8513 15.3512L21.25 13.7499V13.7112L21.2112 13.6724C20.4112 12.9599 19.365 12.6174 18.3588 12.6174C17.3538 12.6174 16.3813 12.9924 15.625 13.7499L15.43 13.9062L14.805 14.5312L14.375 14.8824L2.96875 23.7499L1.875 24.6487L15.3513 38.1249L16.25 37.0312L25.0787 25.7024L25.1163 25.7424L26.3663 24.4924H26.4062L26.445 24.4524C27.87 22.8462 27.8812 20.3812 26.3675 18.8674L24.6487 17.1487L37.1487 4.6487L35.3513 2.8512ZM18.36 15.1174C18.7718 15.1091 19.1732 15.2473 19.4925 15.5074C19.5062 15.5174 19.5175 15.5374 19.5312 15.5462L24.61 20.6249C25.0787 21.0937 25.1225 22.0899 24.61 22.7349C24.59 22.7587 24.59 22.7874 24.57 22.8124L24.18 23.1637L16.9525 15.9374L17.3825 15.5074C17.6225 15.2687 17.975 15.1274 18.36 15.1174ZM15.0375 17.5374L22.46 24.9599L15.1163 34.3349L13.3187 32.5374L16.0137 29.7249L14.2175 28.0062L11.5612 30.7799L9.92 29.1387L14.7637 24.2562L13.0075 22.4999L8.125 27.3437L5.66375 24.8824L15.0375 17.5374Z" fill="#999999"/>
</g>
</svg>
