<svg width="50" height="50" viewBox="0 0 50 50" fill="none" xmlns="http://www.w3.org/2000/svg">
<g id="mingcute:user-4-line" clip-path="url(#clip0_67_262)">
<g id="Group">
<path id="Vector" fill-rule="evenodd" clip-rule="evenodd" d="M25 4.16675C36.5062 4.16675 45.8333 13.4938 45.8333 25.0001C45.8407 29.8082 44.1779 34.4696 41.1291 38.1876L41.1708 38.2334L40.8958 38.4667C38.9421 40.7776 36.5075 42.6341 33.7619 43.9065C31.0163 45.1789 28.0261 45.8365 25 45.8334C18.8541 45.8334 13.3333 43.173 9.52082 38.9438L9.10415 38.4647L8.82915 38.2355L8.87081 38.1855C5.82239 34.4682 4.15961 29.8075 4.16665 25.0001C4.16665 13.4938 13.4937 4.16675 25 4.16675ZM25 35.4167C21.125 35.4167 17.6229 36.6501 15.0146 38.3459C17.8946 40.5069 21.3994 41.6725 25 41.6667C28.6006 41.6725 32.1054 40.5069 34.9854 38.3459C32.0049 36.436 28.5399 35.4196 25 35.4167ZM25 8.33341C21.8636 8.33333 18.7908 9.21824 16.1348 10.8864C13.4788 12.5546 11.3475 14.9384 9.98573 17.7638C8.62397 20.5891 8.08707 23.7414 8.43675 26.8583C8.78643 29.9751 10.0085 32.93 11.9625 35.3834C15.3396 32.9605 19.9479 31.2501 25 31.2501C30.0521 31.2501 34.6604 32.9605 38.0375 35.3834C39.9915 32.93 41.2135 29.9751 41.5632 26.8583C41.9129 23.7414 41.376 20.5891 40.0142 17.7638C38.6525 14.9384 36.5211 12.5546 33.8651 10.8864C31.2092 9.21824 28.1364 8.33333 25 8.33341ZM25 12.5001C27.2101 12.5001 29.3297 13.3781 30.8925 14.9409C32.4553 16.5037 33.3333 18.6233 33.3333 20.8334C33.3333 23.0436 32.4553 25.1632 30.8925 26.726C29.3297 28.2888 27.2101 29.1667 25 29.1667C22.7898 29.1667 20.6702 28.2888 19.1074 26.726C17.5446 25.1632 16.6666 23.0436 16.6666 20.8334C16.6666 18.6233 17.5446 16.5037 19.1074 14.9409C20.6702 13.3781 22.7898 12.5001 25 12.5001ZM25 16.6667C23.8949 16.6667 22.8351 17.1057 22.0537 17.8871C21.2723 18.6685 20.8333 19.7283 20.8333 20.8334C20.8333 21.9385 21.2723 22.9983 22.0537 23.7797C22.8351 24.5611 23.8949 25.0001 25 25.0001C26.105 25.0001 27.1649 24.5611 27.9463 23.7797C28.7277 22.9983 29.1666 21.9385 29.1666 20.8334C29.1666 19.7283 28.7277 18.6685 27.9463 17.8871C27.1649 17.1057 26.105 16.6667 25 16.6667Z" fill="#3F3C3C"/>
</g>
</g>
<defs>
<clipPath id="clip0_67_262">
<rect width="50" height="50" fill="white"/>
</clipPath>
</defs>
</svg>
