<svg width="25" height="25" viewBox="0 0 25 25" fill="none" xmlns="http://www.w3.org/2000/svg">
<g id="tabler:flag-filled" clip-path="url(#clip0_78_300)">
<g id="Group">
<path id="Vector" d="M4.16669 5.2083C4.16671 5.06978 4.19435 4.93265 4.24801 4.80495C4.30167 4.67724 4.38026 4.56152 4.47919 4.46455C5.61444 3.35167 7.13111 2.71323 8.7205 2.67917C10.3099 2.64511 11.8525 3.218 13.0344 4.28122L13.4 4.62288C14.1598 5.28861 15.1356 5.65562 16.1459 5.65562C17.1561 5.65562 18.1319 5.28861 18.8917 4.62288L19.1511 4.38643C19.7865 3.8833 20.7417 4.28538 20.8281 5.09059L20.8334 5.2083V14.5833C20.8333 14.7218 20.8057 14.8589 20.752 14.9867C20.6984 15.1144 20.6198 15.2301 20.5209 15.3271C19.3856 16.4399 17.8689 17.0784 16.2795 17.1124C14.6902 17.1465 13.1475 16.5736 11.9656 15.5104L11.6 15.1687C10.8641 14.5239 9.92478 14.1587 8.9466 14.137C7.96843 14.1153 7.01381 14.4385 6.25002 15.05V21.875C6.24973 22.1405 6.14806 22.3958 5.9658 22.5889C5.78354 22.782 5.53444 22.8981 5.2694 22.9137C5.00436 22.9292 4.74338 22.843 4.53978 22.6726C4.33618 22.5022 4.20534 22.2605 4.17398 21.9968L4.16669 21.875V5.2083Z" fill="#FFD233" fill-opacity="0.62"/>
</g>
</g>
<defs>
<clipPath id="clip0_78_300">
<rect width="25" height="25" fill="white"/>
</clipPath>
</defs>
</svg>
